<svg xmlns="http://www.w3.org/2000/svg" viewBox="0 0 64 64" role="img" aria-label="MS Company">
  <rect width="64" height="64" rx="18" fill="#0F172A"/>
  <circle cx="32" cy="32" r="24" fill="#F59E0B"/>
  <path
    d="M15 42V22h5.7l5.2 8.6 5.2-8.6H37v20h-5.4V30.9l-4.3 7h-2.8l-4.2-7V42H15Z"
    fill="#111827"
  />
  <path
    d="M39.2 37.2c1.8 1 3.9 1.5 6.1 1.5 1.8 0 2.7-.5 2.7-1.4 0-.8-.7-1.2-3-1.7l-1.7-.4c-3.8-.9-5.8-2.8-5.8-6.1 0-4 3.2-6.7 8.4-6.7 2.7 0 5 .6 6.9 1.7l-1.8 4.2c-1.5-.8-3.2-1.2-5.1-1.2-1.7 0-2.5.5-2.5 1.4 0 .8.7 1.2 3.1 1.8l1.7.4c3.9.9 5.7 2.8 5.7 6 0 4.1-3.3 6.8-8.8 6.8-3.1 0-5.8-.7-7.7-1.9l1.8-4.4Z"
    fill="#111827"
  />
</svg>
